<svg xmlns="http://www.w3.org/2000/svg" width="114" height="20" fill="none"><path fill="#fff" d="M5.403 19.624V9.516h2.85V6.183h-2.85v-.135c0-1.666.95-2.428 2.85-2.285V.43C6.156.305 4.579.735 3.52 1.72c-1.057.986-1.586 2.429-1.586 4.328v.135H0v3.333h1.935v10.108h3.468zm9.301.376c1.828 0 3.163-.627 4.006-1.882v1.506h3.467V6.183H18.71v7.258c0 1.111-.27 1.944-.807 2.5-.537.555-1.254.833-2.15.833-.807 0-1.452-.237-1.936-.712s-.726-1.16-.726-2.057V6.183H9.624v8.252c0 1.739.479 3.1 1.438 4.086.959.986 2.173 1.479 3.642 1.479zm14.113-.376v-7.258c0-1.111.269-1.945.807-2.5.537-.556 1.254-.834 2.15-.834.807 0 1.452.238 1.936.713.483.475.725 1.16.725 2.056v7.823h3.468V11.37c0-1.738-.48-3.1-1.438-4.086-.959-.986-2.173-1.479-3.642-1.479-1.828 0-3.163.628-4.006 1.882V6.183H25.35v13.44h3.468zM46.694 20c1.881 0 3.333-.654 4.354-1.962v1.586h3.468V.806h-3.468V7.77c-1.021-1.308-2.473-1.963-4.355-1.963-1.81 0-3.355.686-4.637 2.057-1.28 1.37-1.922 3.051-1.922 5.04 0 1.99.641 3.67 1.922 5.04C43.338 19.314 44.884 20 46.694 20zm.645-3.306c-1.076 0-1.972-.35-2.688-1.049-.7-.717-1.049-1.63-1.049-2.742 0-1.11.354-2.02 1.062-2.728.708-.708 1.6-1.062 2.675-1.062 1.075 0 1.962.354 2.661 1.062.699.708 1.048 1.617 1.048 2.728 0 1.111-.35 2.02-1.048 2.729-.699.708-1.586 1.062-2.661 1.062zm13.898 2.93V8.44h3.548V6.183h-3.548V5.78c0-2.24 1.182-3.262 3.548-3.065V.457c-1.9-.125-3.356.278-4.368 1.21-1.013.932-1.52 2.303-1.52 4.113v.403h-2.15V8.44h2.15v11.183h2.34zm11.64.35c1.97 0 3.646-.682 5.026-2.044s2.07-3.037 2.07-5.027c0-1.989-.69-3.665-2.07-5.027s-3.055-2.043-5.027-2.043c-1.971 0-3.642.681-5.013 2.043s-2.057 3.038-2.057 5.027c0 1.99.686 3.665 2.057 5.027 1.37 1.362 3.042 2.043 5.013 2.043zm0-2.286c-1.327 0-2.447-.457-3.36-1.37-.915-.915-1.372-2.053-1.372-3.415s.457-2.5 1.371-3.414c.914-.914 2.034-1.37 3.36-1.37 1.344 0 2.473.456 3.387 1.37.914.914 1.371 2.052 1.371 3.414s-.457 2.5-1.37 3.414c-.915.914-2.044 1.371-3.388 1.371zm12.204 1.936V0h-2.34v19.624h2.34zm4.758-15.887c.43 0 .797-.153 1.102-.457.305-.305.457-.672.457-1.103 0-.43-.152-.802-.457-1.115a1.48 1.48 0 0 0-1.102-.47c-.448 0-.825.156-1.13.47a1.546 1.546 0 0 0-.456 1.115c0 .43.152.798.457 1.103.304.304.68.457 1.129.457zm1.156 15.887V6.183h-2.34v13.44h2.34zm9.892.35c1.971 0 3.647-.682 5.027-2.044 1.38-1.362 2.07-3.037 2.07-5.027 0-1.989-.69-3.665-2.07-5.027s-3.056-2.043-5.027-2.043-3.642.681-5.013 2.043-2.057 3.038-2.057 5.027c0 1.99.686 3.665 2.057 5.027 1.37 1.362 3.042 2.043 5.013 2.043zm0-2.286c-1.326 0-2.446-.457-3.36-1.37-.914-.915-1.371-2.053-1.371-3.415s.457-2.5 1.37-3.414c.915-.914 2.035-1.37 3.361-1.37 1.344 0 2.473.456 3.387 1.37.914.914 1.371 2.052 1.371 3.414s-.457 2.5-1.371 3.414c-.914.914-2.043 1.371-3.387 1.371z"/><path fill="#F55240" d="M112.231 19.92c.502 0 .918-.17 1.25-.511a1.71 1.71 0 0 0 .497-1.237c0-.484-.166-.896-.497-1.237-.332-.34-.748-.51-1.25-.51-.484 0-.896.17-1.237.51-.34.34-.511.753-.511 1.237 0 .484.171.896.511 1.237.341.34.753.51 1.237.51z"/></svg>